<svg xmlns="http://www.w3.org/2000/svg" width="144" height="144" viewBox="0 0 144 144">
  <defs>
    <radialGradient id="bg144" cx="35%" cy="30%" r="75%">
      <stop offset="0%"   stop-color="#1a0f3a"/>
      <stop offset="55%"  stop-color="#0d0820"/>
      <stop offset="100%" stop-color="#060610"/>
    </radialGradient>
    <linearGradient id="sp144" x1="0%" y1="0%" x2="100%" y2="100%">
      <stop offset="0%"   stop-color="#c4b5fd"/>
      <stop offset="45%"  stop-color="#7c3aed"/>
      <stop offset="100%" stop-color="#06b6d4"/>
    </linearGradient>
    <filter id="gl144" x="-40%" y="-40%" width="180%" height="180%">
      <feGaussianBlur stdDeviation="4.3" result="blur"/>
      <feComposite in="SourceGraphic" in2="blur" operator="over"/>
    </filter>
    <linearGradient id="tg144" x1="0%" y1="0%" x2="100%" y2="0%">
      <stop offset="0%"   stop-color="#c4b5fd"/>
      <stop offset="100%" stop-color="#7c3aed"/>
    </linearGradient>
  </defs>
  <rect width="144" height="144" rx="31.7" fill="url(#bg144)"/>
  <rect width="144" height="144" rx="31.7" fill="none" stroke="#7c3aed" stroke-opacity="0.25" stroke-width="1.2"/>
  <circle cx="72.0" cy="72.0" r="67.0" fill="none" stroke="#7c3aed" stroke-opacity="0.12" stroke-width="1.0"/>
  <circle cx="72.0" cy="72.0" r="79.9" fill="none" stroke="#06b6d4" stroke-opacity="0.07" stroke-width="1.0"/>
  <circle cx="72.0" cy="72.0" r="49.7" fill="#7c3aed" fill-opacity="0.18" filter="url(#gl144)"/>
  <path d="M 72.00,28.80 L 75.97,68.03 L 115.20,72.00 L 75.97,75.97 L 72.00,115.20 L 68.03,75.97 L 28.80,72.00 L 68.03,68.03 Z" fill="url(#sp144)" filter="url(#gl144)"/>
  <path d="M 72.00,54.72 L 74.44,69.56 L 89.28,72.00 L 74.44,74.44 L 72.00,89.28 L 69.56,74.44 L 54.72,72.00 L 69.56,69.56 Z" fill="#ffffff" fill-opacity="0.92"/>
  <circle cx="132.5" cy="33.1" r="2.6" fill="#c4b5fd" fill-opacity="0.7"/>
  <circle cx="15.8" cy="102.2" r="2.6" fill="#06b6d4" fill-opacity="0.5"/>
  <circle cx="106.6" cy="136.8" r="2.6" fill="#a78bfa" fill-opacity="0.4"/>
  <circle cx="28.8" cy="15.8" r="2.6" fill="#7c3aed" fill-opacity="0.6"/>
</svg>