<svg xmlns="http://www.w3.org/2000/svg" width="192" height="192" viewBox="0 0 192 192">
  <defs>
    <radialGradient id="bg192" cx="35%" cy="30%" r="75%">
      <stop offset="0%"   stop-color="#1a0f3a"/>
      <stop offset="55%"  stop-color="#0d0820"/>
      <stop offset="100%" stop-color="#060610"/>
    </radialGradient>
    <linearGradient id="sp192" x1="0%" y1="0%" x2="100%" y2="100%">
      <stop offset="0%"   stop-color="#c4b5fd"/>
      <stop offset="45%"  stop-color="#7c3aed"/>
      <stop offset="100%" stop-color="#06b6d4"/>
    </linearGradient>
    <filter id="gl192" x="-40%" y="-40%" width="180%" height="180%">
      <feGaussianBlur stdDeviation="5.8" result="blur"/>
      <feComposite in="SourceGraphic" in2="blur" operator="over"/>
    </filter>
    <linearGradient id="tg192" x1="0%" y1="0%" x2="100%" y2="0%">
      <stop offset="0%"   stop-color="#c4b5fd"/>
      <stop offset="100%" stop-color="#7c3aed"/>
    </linearGradient>
  </defs>
  <rect width="192" height="192" rx="42.2" fill="url(#bg192)"/>
  <rect width="192" height="192" rx="42.2" fill="none" stroke="#7c3aed" stroke-opacity="0.25" stroke-width="1.5"/>
  <circle cx="96.0" cy="96.0" r="89.3" fill="none" stroke="#7c3aed" stroke-opacity="0.12" stroke-width="1.2"/>
  <circle cx="96.0" cy="96.0" r="106.6" fill="none" stroke="#06b6d4" stroke-opacity="0.07" stroke-width="1.0"/>
  <circle cx="96.0" cy="96.0" r="66.2" fill="#7c3aed" fill-opacity="0.18" filter="url(#gl192)"/>
  <path d="M 96.00,38.40 L 101.29,90.71 L 153.60,96.00 L 101.29,101.29 L 96.00,153.60 L 90.71,101.29 L 38.40,96.00 L 90.71,90.71 Z" fill="url(#sp192)" filter="url(#gl192)"/>
  <path d="M 96.00,72.96 L 99.26,92.74 L 119.04,96.00 L 99.26,99.26 L 96.00,119.04 L 92.74,99.26 L 72.96,96.00 L 92.74,92.74 Z" fill="#ffffff" fill-opacity="0.92"/>
  <circle cx="176.6" cy="44.2" r="3.5" fill="#c4b5fd" fill-opacity="0.7"/>
  <circle cx="21.1" cy="136.3" r="3.5" fill="#06b6d4" fill-opacity="0.5"/>
  <circle cx="142.1" cy="182.4" r="3.5" fill="#a78bfa" fill-opacity="0.4"/>
  <circle cx="38.4" cy="21.1" r="3.5" fill="#7c3aed" fill-opacity="0.6"/>
  <text x="96.0" y="176.6" font-family="Outfit, Inter, system-ui, sans-serif" font-weight="800" font-size="22.1" fill="url(#tg192)" text-anchor="middle" letter-spacing="0.5">LumindAd</text>
</svg>