<svg xmlns="http://www.w3.org/2000/svg" width="384" height="384" viewBox="0 0 384 384">
  <defs>
    <radialGradient id="bg384" cx="35%" cy="30%" r="75%">
      <stop offset="0%"   stop-color="#1a0f3a"/>
      <stop offset="55%"  stop-color="#0d0820"/>
      <stop offset="100%" stop-color="#060610"/>
    </radialGradient>
    <linearGradient id="sp384" x1="0%" y1="0%" x2="100%" y2="100%">
      <stop offset="0%"   stop-color="#c4b5fd"/>
      <stop offset="45%"  stop-color="#7c3aed"/>
      <stop offset="100%" stop-color="#06b6d4"/>
    </linearGradient>
    <filter id="gl384" x="-40%" y="-40%" width="180%" height="180%">
      <feGaussianBlur stdDeviation="11.5" result="blur"/>
      <feComposite in="SourceGraphic" in2="blur" operator="over"/>
    </filter>
    <linearGradient id="tg384" x1="0%" y1="0%" x2="100%" y2="0%">
      <stop offset="0%"   stop-color="#c4b5fd"/>
      <stop offset="100%" stop-color="#7c3aed"/>
    </linearGradient>
  </defs>
  <rect width="384" height="384" rx="84.5" fill="url(#bg384)"/>
  <rect width="384" height="384" rx="84.5" fill="none" stroke="#7c3aed" stroke-opacity="0.25" stroke-width="3.1"/>
  <circle cx="192.0" cy="192.0" r="178.6" fill="none" stroke="#7c3aed" stroke-opacity="0.12" stroke-width="2.3"/>
  <circle cx="192.0" cy="192.0" r="213.1" fill="none" stroke="#06b6d4" stroke-opacity="0.07" stroke-width="1.5"/>
  <circle cx="192.0" cy="192.0" r="132.5" fill="#7c3aed" fill-opacity="0.18" filter="url(#gl384)"/>
  <path d="M 192.00,76.80 L 202.59,181.41 L 307.20,192.00 L 202.59,202.59 L 192.00,307.20 L 181.41,202.59 L 76.80,192.00 L 181.41,181.41 Z" fill="url(#sp384)" filter="url(#gl384)"/>
  <path d="M 192.00,145.92 L 198.52,185.48 L 238.08,192.00 L 198.52,198.52 L 192.00,238.08 L 185.48,198.52 L 145.92,192.00 L 185.48,185.48 Z" fill="#ffffff" fill-opacity="0.92"/>
  <circle cx="353.3" cy="88.3" r="6.9" fill="#c4b5fd" fill-opacity="0.7"/>
  <circle cx="42.2" cy="272.6" r="6.9" fill="#06b6d4" fill-opacity="0.5"/>
  <circle cx="284.2" cy="364.8" r="6.9" fill="#a78bfa" fill-opacity="0.4"/>
  <circle cx="76.8" cy="42.2" r="6.9" fill="#7c3aed" fill-opacity="0.6"/>
  <text x="192.0" y="353.3" font-family="Outfit, Inter, system-ui, sans-serif" font-weight="800" font-size="44.2" fill="url(#tg384)" text-anchor="middle" letter-spacing="0.5">LumindAd</text>
  <text x="192.0" y="384.0" font-family="Outfit, Inter, system-ui, sans-serif" font-weight="500" font-size="19.2" fill="#4c1d95" text-anchor="middle" letter-spacing="1.5">v1.0.0 · ENTERPRISE</text>
</svg>